HIERARCHY
ROOT Hips
{
  OFFSET -31.5692 30.0904 122.763
  CHANNELS 6 Xposition Yposition Zposition Zrotation Xrotation Yrotation
  JOINT LeftUpLeg
  {
    OFFSET 8.64259 1.95398 -2.38835
    CHANNELS 3 Zrotation Xrotation Yrotation
    JOINT LeftLeg
    {
      OFFSET 43.7702 0 0
      CHANNELS 3 Zrotation Xrotation Yrotation
      JOINT LeftFoot
      {
        OFFSET 40.6238 0 0
        CHANNELS 3 Zrotation Xrotation Yrotation
        JOINT LeftToeBase
        {
          OFFSET 12.7242 0 0
          CHANNELS 3 Zrotation Xrotation Yrotation
          End Site
          {
            OFFSET 0 0 0
          }
        }
      }
    }
  }
  JOINT RightUpLeg
  {
    OFFSET -8.2249 1.95398 -2.59336
    CHANNELS 3 Zrotation Xrotation Yrotation
    JOINT RightLeg
    {
      OFFSET 43.5653 0 0
      CHANNELS 3 Zrotation Xrotation Yrotation
      JOINT RightFoot
      {
        OFFSET 40.6238 0 0
        CHANNELS 3 Zrotation Xrotation Yrotation
        JOINT RightToeBase
        {
          OFFSET 12.7242 0 0
          CHANNELS 3 Zrotation Xrotation Yrotation
          End Site
          {
            OFFSET 0 0 0
          }
        }
      }
    }
  }
  JOINT Spine
  {
    OFFSET 0.165834 0.87714 6.61349
    CHANNELS 3 Zrotation Xrotation Yrotation
    JOINT Spine1
    {
      OFFSET 7.38963 1.71661e-005 0
      CHANNELS 3 Zrotation Xrotation Yrotation
      JOINT Spine2
      {
        OFFSET 11.9445 1.14441e-005 0
        CHANNELS 3 Zrotation Xrotation Yrotation
        JOINT Spine3
        {
          OFFSET 14.7254 4.19617e-005 0
          CHANNELS 3 Zrotation Xrotation Yrotation
          JOINT Spine4
          {
            OFFSET 10.9679 0 0
            CHANNELS 3 Zrotation Xrotation Yrotation
            JOINT RightShoulder
            {
              OFFSET 2.46616 -1.6653 3.69651
              CHANNELS 3 Zrotation Xrotation Yrotation
              JOINT RightArm
              {
                OFFSET 13.0012 0 0
                CHANNELS 3 Zrotation Xrotation Yrotation
                JOINT RightForeArm
                {
                  OFFSET 28.7848 1.62311e-005 0
                  CHANNELS 3 Zrotation Xrotation Yrotation
                  JOINT RightHand
                  {
                    OFFSET 26.5688 1.62095e-005 0
                    CHANNELS 3 Zrotation Xrotation Yrotation
                    End Site
                    {
                      OFFSET 0 0 0
                    }
                  }
                }
              }
            }
            JOINT LeftShoulder
            {
              OFFSET 2.38034 -1.29275 -3.7523
              CHANNELS 3 Zrotation Xrotation Yrotation
              JOINT LeftArm
              {
                OFFSET 16.3182 6.07031e-005 0
                CHANNELS 3 Zrotation Xrotation Yrotation
                JOINT LeftForeArm
                {
                  OFFSET 27.0901 0 0
                  CHANNELS 3 Zrotation Xrotation Yrotation
                  JOINT LeftHand
                  {
                    OFFSET 24.5451 1.51738e-005 0
                    CHANNELS 3 Zrotation Xrotation Yrotation
                    End Site
                    {
                      OFFSET 0 0 0
                    }
                  }
                }
              }
            }
            JOINT Neck
            {
              OFFSET 5.0226 -0.0266342 0
              CHANNELS 3 Zrotation Xrotation Yrotation
              JOINT Head
              {
                OFFSET 6.69364 2.86102e-005 0
                CHANNELS 3 Zrotation Xrotation Yrotation
                End Site
                {
                  OFFSET 0 0 0
                }
              }
            }
          }
        }
      }
    }
  }
}
MOTION
Frames:	10
Frame Time:	0.0416667
73.9255 100.486 -42.8529 102.133 45.2213 84.3768 -173.633 -5.45035 87.2685 -23.1684 15.218 0.376312 80.1143 12.0021 -1.13807 10.1252 -13.2639 6.78579 -179.786 16.2636 94.3018 -29.4347 -11.1977 -3.1601 66.2095 -4.50255 -2.68506 21.7632 2.242 3.8899 -0.361395 8.12073 -90.3629 10.6296 -0.88659 -0.640902 -1.04113 -0.913949 -0.601262 -23.5765 -0.653 -0.877722 -3.56386 -0.652998 -0.877731 88.5644 -30.9502 -109.196 22.1805 -6.05084 -19.6115 11.3554 11.2422 -43.0414 -10.1491 2.50538 -27.1011 -89.6575 -47.7698 78.7634 -26.0647 9.68689 -21.5558 -19.7979 -32.2556 -36.9638 -0.337381 -0.922408 -22.5048 -2.18909 1.39435 -11.7938 -4.28146 2.77694 5.12035 
77.3919 99.9177 -46.0591 102.39 47.2912 83.8892 -172.482 -9.4781 88.602 -21.47 18.6536 0.205981 82.395 14.0014 -1.04212 12.6508 -13.0328 9.15619 -179.806 16.0532 94.9078 -16.4013 -12.8547 -2.16887 64.1749 -3.80964 -2.48347 22.9161 1.70855 4.01018 -0.585415 8.18629 -90.3146 10.4985 -1.31039 -0.508539 -1.17182 -1.33151 -0.45037 -23.7102 -1.09698 -0.878886 -3.69754 -1.09696 -0.878886 88.8842 -31.1935 -108.477 22.3985 -4.92302 -19.1379 10.831 11.1902 -43.579 -10.4157 2.41884 -25.7805 -89.772 -47.2656 78.476 -26.195 10.1785 -23.2034 -17.5548 -29.4629 -34.5162 -7.38371 0.58032 -29.8623 -1.56843 1.09739 -13.465 -4.07057 2.76433 5.3565 
81.0758 98.9444 -49.6908 102.726 47.8287 83.8349 -170.651 -14.0256 90.5929 -19.3859 20.6873 -0.318448 84.6371 15.7639 -1.13452 12.187 -12.935 8.46357 179.56 16.0816 96.5448 -7.39814 -8.4328 -0.130183 62.6211 -2.59994 -0.93893 25.7199 0.754139 2.90368 -0.650514 8.24556 -90.2959 10.3801 -1.43128 -0.462802 -1.29008 -1.45028 -0.399349 -23.8295 -1.226 -0.871609 -3.81686 -1.22602 -0.871616 89.0017 -31.3844 -108.174 22.6311 -4.51451 -19.0083 11.2444 12.0391 -43.9363 -8.67535 2.13125 -25.648 -89.7874 -47.389 78.4798 -26.05 10.2865 -24.3114 -17.5618 -29.7384 -34.4884 -5.2552 0.105206 -28.1543 -1.7289 1.00972 -14.5718 -3.48078 2.82519 5.93193 
85.0302 97.5095 -53.6079 103.016 47.6576 83.914 -168.885 -18.5275 92.3412 -18.2244 20.4768 -0.73321 87.506 17.2814 -2.22779 13.8777 -12.5849 9.78843 179.841 17.7143 98.4841 -7.45871 -4.01088 1.18639 64.0252 -3.21333 -1.09399 27.4181 0.213535 1.96604 -0.664707 8.27356 -90.3276 10.3237 -1.47412 -0.523071 -1.34652 -1.49571 -0.45768 -23.886 -1.24875 -0.941968 -3.87336 -1.24875 -0.941971 88.9236 -31.6186 -108.233 22.0653 -4.48472 -18.9202 11.6619 12.4824 -44.2025 -10.9307 2.28475 -23.1492 -89.9355 -47.5839 78.2957 -26.3189 10.1794 -24.623 -17.2725 -29.9299 -34.2991 -4.7983 -0.0523713 -27.2063 -1.67366 1.07361 -14.2157 -3.43202 2.85344 5.94492 
88.7464 96.4787 -58.3639 102.508 49.6496 83.7576 -168.379 -22.4123 92.8193 -16.8069 23.9513 -0.234625 85.2923 17.6242 1.31111 17.7059 -10.3655 10.2483 179.144 19.1061 98.4212 -12.1026 -5.2701 1.6168 62.8876 -2.22023 -1.06346 24.7723 1.218 2.72375 -0.90378 8.18872 -90.3181 10.4933 -1.94618 -0.459251 -1.17621 -1.96452 -0.373119 -23.7203 -1.71817 -1.02307 -3.70766 -1.71818 -1.02307 89.5228 -31.6266 -107.074 22.2922 -4.57124 -19.4686 11.1778 11.7797 -44.2688 -7.98132 2.11053 -27.0797 -89.9387 -47.3102 78.2294 -26.8728 10.1774 -24.5767 -17.3004 -29.6131 -34.4994 -5.07708 -0.0464547 -26.6653 -0.513508 0.982366 -13.3969 -4.2262 2.75537 5.50049 
92.6914 96.191 -63.0693 102.128 51.484 83.5892 -168.66 -24.2054 93.0873 -18.4435 23.2388 1.19158 81.0987 14.5742 0.739603 23.8713 -5.66298 8.2587 178.597 23.8725 98.5033 -24.5865 -8.25802 1.02892 62.644 0.268878 -2.08586 20.7185 2.69149 3.92732 -1.07318 8.0804 -90.3327 10.7098 -2.29044 -0.451435 -0.95913 -2.30808 -0.350146 -23.5073 -2.04884 -1.11919 -3.49463 -2.04884 -1.11919 89.5569 -31.8622 -106.92 22.828 -4.54065 -18.809 9.87176 9.83129 -44.3845 -8.34373 2.05817 -26.8883 -90.0744 -47.9496 78.1645 -26.7406 10.4242 -24.2573 -18.0527 -29.9771 -34.6102 -7.50189 0.219206 -25.532 0.0755687 0.828823 -12.0928 -4.6361 2.47673 4.42738 
96.4573 96.3873 -68.0124 101.812 52.1121 83.1028 -170.358 -20.9256 91.5509 -28.5523 23.4284 2.56757 71.9969 8.05065 1.85152 34.2255 0.675763 6.66799 177.738 24.5342 97.9429 -32.1139 -9.13931 0.974723 63.3318 0.0148121 -1.62435 16.7591 4.30913 4.32042 -1.01336 7.97421 -90.3466 10.922 -2.17785 -0.483928 -0.747217 -2.19705 -0.38757 -23.2937 -1.93171 -1.1163 -3.28104 -1.93171 -1.1163 90.0362 -31.1234 -106.265 24.3132 -4.4047 -17.4998 8.25884 7.88008 -44.1079 -7.689 1.90031 -28.1425 -90.1969 -48.6357 78.1333 -26.8807 11.0486 -24.0469 -17.1751 -28.5678 -33.3155 -4.44025 -0.0922441 -27.4432 0.217599 0.372606 -9.98124 -4.52196 1.75603 3.26728 
99.9411 96.9839 -72.4848 101.969 51.7185 82.8463 -170.593 -13.8733 91.8478 -43.1415 27.5234 3.08862 62.5067 1.25104 1.4444 22.5348 -5.048 4.77193 177.076 22.6518 98.0589 -36.3614 -9.93935 0.905423 66.6022 -2.61452 -2.04088 17.2081 4.1634 4.15991 -0.774606 7.90593 -90.3982 11.0577 -1.72661 -0.626146 -0.612193 -1.75251 -0.549526 -23.1532 -1.4586 -1.11618 -3.14052 -1.4586 -1.11619 90.5131 -30.2828 -105.637 25.315 -4.91244 -16.4673 18.4693 18.1486 -47.6601 -3.84823 -0.110148 -24.2062 -90.7742 -48.7756 77.2904 -27.2184 11.2851 -22.9723 -16.5859 -28.5283 -33.8293 -3.8898 -0.208906 -27.0644 -0.699972 -0.0215784 -7.74599 -4.2002 1.0008 2.30737 
103.141 97.517 -76.0573 102.307 51.9 83.1673 -170.172 -4.35704 93.9971 -55.8232 28.6088 3.32875 54.1824 -4.34 -1.37857 17.3731 -8.10531 5.29965 176.199 19.6163 98.5988 -37.5738 -10.0883 1.40975 69.1939 -4.5986 -2.24006 18.6647 3.49046 4.26074 -0.550679 7.88222 -90.4879 11.1042 -1.3225 -0.842759 -0.566314 -1.35834 -0.783712 -23.1028 -1.00811 -1.20126 -3.09009 -1.00812 -1.20126 91.086 -30.0948 -104.567 25.2843 -6.07869 -16.6109 -159.099 -21.9717 -153.21 -34.9073 13.843 -66.7897 -91.0173 -48.7574 76.9187 -26.7936 11.6704 -23.1498 -15.9089 -29.0297 -32.4773 -4.6727 -0.126856 -26.4043 -1.85432 -0.514816 -5.76581 -3.74378 0.200391 0.745552 
106.167 98.3572 -79.7154 103.461 52.7747 81.761 -171.057 3.1882 93.5745 -64.1349 21.227 3.3388 62.4473 0.944711 0.520895 14.2688 -10.4002 6.22789 175.735 15.0032 98.0573 -36.4723 -10.2125 1.31201 71.3521 -6.2751 -2.79743 20.1258 2.99229 3.77524 -0.593973 8.00397 -90.4197 10.8619 -1.37652 -0.705654 -0.808476 -1.40624 -0.644397 -23.3462 -1.10081 -1.08675 -3.33352 -1.10083 -1.08675 89.3471 -30.2881 -107.937 24.2337 -5.53455 -16.6147 15.2383 13.5219 -46.194 -8.60528 1.45117 -31.9152 -90.5607 -48.7278 77.6029 -26.6707 10.7146 -22.4859 -17.1032 -28.78 -34.5275 -2.6 -0.406867 -27.272 -3.19876 -0.155595 -6.02005 -2.54181 0.533897 1.8878 
